<svg width="193" height="43" viewBox="0 0 193 43" version="1.1" xmlns="http://www.w3.org/2000/svg" xmlns:xlink="http://www.w3.org/1999/xlink">
<title>DR 110</title>
<desc>Created using Figma</desc>
<g id="Canvas" transform="translate(359 175)">
<g id="DR 110">
<use xlink:href="#path0_fill" transform="translate(-361 -192)" fill="url(#paint0_linear)"/>
</g>
</g>
<defs>
<linearGradient id="paint0_linear" x1="0" y1="0" x2="1" y2="0" gradientUnits="userSpaceOnUse" gradientTransform="matrix(1.22465e-14 82 -200 5.02105e-15 200 -5.02105e-15)">
<stop offset="0" stop-color="#3CD8FA"/>
<stop offset="1" stop-color="#3CFA9F"/>
</linearGradient>
<path id="path0_fill" d="M 2.88 55.184L 8.496 55.184L 8.496 22.28L 2.88 22.28L 2.88 18.464L 24.912 18.464C 29.376 18.464 33.168 19.4 36.288 21.272C 39.456 23.144 41.808 25.616 43.344 28.688C 44.928 31.712 45.72 34.928 45.72 38.336C 45.72 42.368 44.928 45.944 43.344 49.064C 41.808 52.184 39.48 54.632 36.36 56.408C 33.288 58.136 29.496 59 24.984 59L 2.88 59L 2.88 55.184ZM 24.408 55.184C 29.544 55.184 33.36 53.648 35.856 50.576C 38.4 47.504 39.672 43.472 39.672 38.48C 39.672 35.6 39.12 32.936 38.016 30.488C 36.912 28.04 35.232 26.072 32.976 24.584C 30.72 23.048 27.936 22.28 24.624 22.28L 14.4 22.28L 14.4 55.184L 24.408 55.184ZM 52.0267 55.184L 57.6427 55.184L 57.6427 22.28L 52.0267 22.28L 52.0267 18.464L 73.3388 18.464C 77.6587 18.464 81.0187 19.376 83.4188 21.2C 85.8667 22.976 87.0907 25.592 87.0907 29.048C 87.0907 35.192 83.6107 38.792 76.6508 39.848L 85.9387 55.184L 91.9147 55.184L 91.9147 59L 81.9068 59L 71.0348 40.424L 66.0667 40.424L 66.0667 36.464L 72.4027 36.464C 75.6188 36.464 77.8988 35.768 79.2428 34.376C 80.5867 32.936 81.2587 31.184 81.2587 29.12C 81.2587 27.104 80.5867 25.472 79.2428 24.224C 77.9468 22.928 76.0028 22.28 73.4108 22.28L 63.5468 22.28L 63.5468 55.184L 69.1628 55.184L 69.1628 59L 52.0267 59L 52.0267 55.184ZM 119.118 55.184L 125.166 55.184L 125.166 23.144L 119.046 24.152L 118.902 20.336L 130.35 18.464L 130.35 55.184L 136.038 55.184L 136.038 59L 119.118 59L 119.118 55.184ZM 141.548 55.184L 147.596 55.184L 147.596 23.144L 141.476 24.152L 141.332 20.336L 152.78 18.464L 152.78 55.184L 158.468 55.184L 158.468 59L 141.548 59L 141.548 55.184ZM 179.89 59.792C 174.946 59.792 171.202 57.992 168.658 54.392C 166.162 50.744 164.914 45.464 164.914 38.552C 164.914 31.976 166.186 26.864 168.73 23.216C 171.274 19.568 174.994 17.744 179.89 17.744C 184.786 17.744 188.506 19.568 191.05 23.216C 193.594 26.864 194.866 31.976 194.866 38.552C 194.866 45.464 193.594 50.744 191.05 54.392C 188.554 57.992 184.834 59.792 179.89 59.792ZM 179.89 55.976C 183.01 55.976 185.386 54.488 187.018 51.512C 188.698 48.536 189.538 44.216 189.538 38.552C 189.538 33.032 188.698 28.832 187.018 25.952C 185.386 23.024 183.01 21.56 179.89 21.56C 176.77 21.56 174.37 23.024 172.69 25.952C 171.058 28.832 170.242 33.032 170.242 38.552C 170.242 44.216 171.058 48.536 172.69 51.512C 174.37 54.488 176.77 55.976 179.89 55.976Z"/>
</defs>
</svg>
